<?xml version="1.0" encoding="UTF-8" standalone="no"?>
<svg
   version="1.0"
   x="0px"
   y="0px"
   viewBox="0 0 80 80"
   enable-background="new 0 0 100 100"
   xml:space="preserve"
   id="svg6"
   width="80"
   height="80"
   xmlns="http://www.w3.org/2000/svg"
   xmlns:svg="http://www.w3.org/2000/svg"><defs
     id="defs6" /><path
     d="m 43.333,0 v 6.692 c 16.85,1.68 30,15.951 30,33.308 0,17.354 -13.15,31.624 -30,33.304 V 80 C 63.864,78.298 80,61.052 80,40 80,18.945 63.864,1.706 43.333,0 Z"
     id="path1" /><path
     d="m 36.667,73.304 c -16.843,-1.68 -30,-15.95 -30,-33.304 0,-17.356 13.157,-31.628 30,-33.308 V 0 C 16.14,1.706 0,18.945 0,40 0,61.052 16.14,78.298 36.667,80 Z"
     id="path2" /><path
     d="M 20.3,36.667 C 21.888,27.21 30.091,20 40,20 c 9.909,0 18.112,7.21 19.7,16.667 h 6.735 C 64.795,23.516 53.601,13.333 40,13.333 c -13.594,0 -24.792,10.183 -26.436,23.334 z"
     id="path3" /><path
     d="M 59.7,43.333 C 58.112,52.786 49.909,60 40,60 30.091,60 21.888,52.786 20.3,43.333 H 13.565 C 15.208,56.484 26.406,66.667 40,66.667 c 13.601,0 24.795,-10.183 26.436,-23.334 z"
     id="path4" /><path
     d="m 40,26.667 c -7.363,0 -13.333,5.97 -13.333,13.333 0,7.363 5.97,13.333 13.333,13.333 7.366,0 13.333,-5.97 13.333,-13.333 0,-7.363 -5.967,-13.333 -13.333,-13.333 z m 0,20 c -3.682,0 -6.667,-2.985 -6.667,-6.667 0,-3.682 2.985,-6.667 6.667,-6.667 3.685,0 6.667,2.985 6.667,6.667 0,3.682 -2.982,6.667 -6.667,6.667 z"
     id="path5" /></svg>
