<svg xmlns="http://www.w3.org/2000/svg" xmlns:xlink="http://www.w3.org/1999/xlink" version="1.0" x="0px" y="0px" viewBox="0 0 100 125" enable-background="new 0 0 100 100" xml:space="preserve"><path d="M53.333,10v6.692c16.85,1.68,30,15.951,30,33.308c0,17.354-13.15,31.624-30,33.304V90C73.864,88.298,90,71.052,90,50  C90,28.945,73.864,11.706,53.333,10z"/><path d="M46.667,83.304c-16.843-1.68-30-15.95-30-33.304c0-17.356,13.157-31.628,30-33.308V10C26.14,11.706,10,28.945,10,50  c0,21.052,16.14,38.298,36.667,40V83.304z"/><path d="M30.3,46.667C31.888,37.21,40.091,30,50,30s18.112,7.21,19.7,16.667h6.735C74.795,33.516,63.601,23.333,50,23.333  c-13.594,0-24.792,10.183-26.436,23.334H30.3z"/><path d="M69.7,53.333C68.112,62.786,59.909,70,50,70s-18.112-7.214-19.7-16.667h-6.735C25.208,66.484,36.406,76.667,50,76.667  c13.601,0,24.795-10.183,26.436-23.334H69.7z"/><path d="M50,36.667c-7.363,0-13.333,5.97-13.333,13.333S42.637,63.333,50,63.333c7.366,0,13.333-5.97,13.333-13.333  S57.366,36.667,50,36.667z M50,56.667c-3.682,0-6.667-2.985-6.667-6.667s2.985-6.667,6.667-6.667c3.685,0,6.667,2.985,6.667,6.667  S53.685,56.667,50,56.667z"/><text x="0" y="115" fill="#000000" font-size="5px" font-weight="bold" font-family="'Helvetica Neue', Helvetica, Arial-Unicode, Arial, Sans-serif">Created by Danil Polshin</text><text x="0" y="120" fill="#000000" font-size="5px" font-weight="bold" font-family="'Helvetica Neue', Helvetica, Arial-Unicode, Arial, Sans-serif">from the Noun Project</text></svg>